<?xml version="1.0" encoding="UTF-8" standalone="no"?>
<!-- Created with Inkscape (http://www.inkscape.org/) -->

<svg
   xmlns:dc="http://purl.org/dc/elements/1.1/"
   xmlns:cc="http://creativecommons.org/ns#"
   xmlns:rdf="http://www.w3.org/1999/02/22-rdf-syntax-ns#"
   xmlns:svg="http://www.w3.org/2000/svg"
   xmlns="http://www.w3.org/2000/svg"
   xmlns:sodipodi="http://sodipodi.sourceforge.net/DTD/sodipodi-0.dtd"
   xmlns:inkscape="http://www.inkscape.org/namespaces/inkscape"
   version="1.1"
   id="svg2"
   xml:space="preserve"
   width="1522.5197"
   height="793.70074"
   viewBox="0 0 1522.5197 793.70074"
   sodipodi:docname="dpi -logo registered.svg"
   inkscape:version="0.92.3 (2405546, 2018-03-11)"><metadata
     id="metadata8"><rdf:RDF><cc:Work
         rdf:about=""><dc:format>image/svg+xml</dc:format><dc:type
           rdf:resource="http://purl.org/dc/dcmitype/StillImage" /><dc:title></dc:title></cc:Work></rdf:RDF></metadata><defs
     id="defs6" /><sodipodi:namedview
     pagecolor="#ffffff"
     bordercolor="#666666"
     borderopacity="1"
     objecttolerance="10"
     gridtolerance="10"
     guidetolerance="10"
     inkscape:pageopacity="0"
     inkscape:pageshadow="2"
     inkscape:window-width="1920"
     inkscape:window-height="986"
     id="namedview4"
     showgrid="false"
     inkscape:zoom="0.29734129"
     inkscape:cx="561.25983"
     inkscape:cy="396.85037"
     inkscape:window-x="-11"
     inkscape:window-y="-11"
     inkscape:window-maximized="1"
     inkscape:current-layer="g10" /><g
     id="g10"
     inkscape:groupmode="layer"
     inkscape:label="dpi -logo"
     transform="matrix(1.3333333,0,0,-1.3333333,0,793.70076)"><g
       id="g12"
       transform="scale(1,-1)"
       inkscape:export-xdpi="96"
       inkscape:export-ydpi="96"
       inkscape:export-filename="C:\Users\Ryan\Desktop\text32.png"><path
         d="m 360.53418,-171.14258 c 0,0 -256.49414,0 -256.49414,0 0,0 -82.60547,-3.10156 -83.96729,-79.80664 -1.36084,-76.70459 117.56836,-81.9751 150.69336,-80.43652 0,0 24.91358,54.39062 24.91358,54.39062 0,0 -44.89502,-7.54101 -45.79151,25.44141 -0.875,32.21484 49.91504,23.75098 59.45703,22.66894 0,0 0,-181.47509 0,-181.47509 0,0 151.6709,0 151.6709,0"
         style="fill:#ffffff;fill-opacity:1;fill-rule:nonzero;stroke:none"
         id="path14"
         inkscape:connector-curvature="0" /><path
         d="m 360.53418,-171.14258 c 0,0 -256.49414,0 -256.49414,0 0,0 -82.60547,-3.10156 -83.96729,-79.80664 -1.36084,-76.70459 117.56836,-81.9751 150.69336,-80.43652 0,0 24.91358,54.39062 24.91358,54.39062 0,0 -44.89502,-7.54101 -45.79151,25.44141 -0.875,32.21484 49.91504,23.75098 59.45703,22.66894 0,0 0,-181.47509 0,-181.47509 0,0 151.6709,0 151.6709,0"
         style="fill:none;stroke:#060606;stroke-width:8;stroke-linecap:butt;stroke-linejoin:miter;stroke-miterlimit:4;stroke-dasharray:none;stroke-opacity:1"
         id="path16"
         inkscape:connector-curvature="0" /><path
         d="m 361.01611,-410.35986 c 0,0 264.521,0 264.521,0 0,0 65.35937,8.2705 68.53613,64.09716 3.17676,55.82715 -33.13183,84.875 -143.42285,94.40723 0,0 -27.6875,-59.02881 -27.6875,-59.02881 0.24121,0.0469 52.65039,13.6416 51.74219,-20.85498 -0.7041,-26.71191 -64.44922,-17.70068 -64.44922,-17.70068 0,0 0,178.29736 0,178.29736 0,0 -149.72168,0 -149.72168,0 0,0 0,-238.64111 0,-238.64111"
         style="fill:#e21408;fill-opacity:1;fill-rule:nonzero;stroke:none"
         id="path18"
         inkscape:connector-curvature="0" /><path
         d="m 361.01611,-410.35986 c 0,0 264.521,0 264.521,0 0,0 65.35937,8.2705 68.53613,64.09716 3.17676,55.82715 -33.13183,84.875 -143.42285,94.40723 0,0 -27.6875,-59.02881 -27.6875,-59.02881 0.24121,0.0469 52.65039,13.6416 51.74219,-20.85498 -0.7041,-26.71191 -64.44922,-17.70068 -64.44922,-17.70068 0,0 0,178.29736 0,178.29736 0,0 -149.72168,0 -149.72168,0 0,0 0,-238.64111 0,-238.64111"
         style="fill:none;stroke:#060606;stroke-width:8;stroke-linecap:butt;stroke-linejoin:miter;stroke-miterlimit:4;stroke-dasharray:none;stroke-opacity:1"
         id="path20"
         inkscape:connector-curvature="0" /><path
         d="m 752.52539,-172.02344 c 0,0 -111.19336,0 -111.19336,0 0,0 59.62305,-170.91015 59.62305,-170.91015 0,0 111.19433,0 111.19433,0 0,0 -59.62402,170.91015 -59.62402,170.91015 z"
         style="fill:#ffffff;fill-opacity:1;fill-rule:nonzero;stroke:none"
         id="path22"
         inkscape:connector-curvature="0" /><path
         d="m 752.52539,-172.02344 c 0,0 -111.19336,0 -111.19336,0 0,0 59.62305,-170.91015 59.62305,-170.91015 0,0 111.19433,0 111.19433,0 0,0 -59.62402,170.91015 -59.62402,170.91015 z"
         style="fill:none;stroke:#060606;stroke-width:8;stroke-linecap:butt;stroke-linejoin:miter;stroke-miterlimit:4;stroke-dasharray:none;stroke-opacity:1"
         id="path24"
         inkscape:connector-curvature="0" /><path
         d="m 818.91699,-402.74365 c 0,29.20361 -23.67187,52.87744 -52.87597,52.87744 -29.20313,0 -52.87598,-23.67383 -52.87598,-52.87744 0,-29.20166 23.67285,-52.87598 52.87598,-52.87598 29.2041,0 52.87597,23.67432 52.87597,52.87598 z"
         style="fill:#ffffff;fill-opacity:1;fill-rule:nonzero;stroke:none"
         id="path26"
         inkscape:connector-curvature="0" /><path
         d="m 818.91699,-402.74365 c 0,29.20361 -23.67187,52.87744 -52.87597,52.87744 -29.20313,0 -52.87598,-23.67383 -52.87598,-52.87744 0,-29.20166 23.67285,-52.87598 52.87598,-52.87598 29.2041,0 52.87597,23.67432 52.87597,52.87598 z"
         style="fill:none;stroke:#060606;stroke-width:8;stroke-linecap:butt;stroke-linejoin:miter;stroke-miterlimit:4;stroke-dasharray:none;stroke-opacity:1"
         id="path28"
         inkscape:connector-curvature="0" /></g><text
       xml:space="preserve"
       style="font-style:normal;font-weight:normal;font-size:64px;line-height:1.25;font-family:sans-serif;letter-spacing:0px;word-spacing:0px;fill:#ffffff;fill-opacity:1;stroke:none;stroke-width:0.75"
       x="831.55573"
       y="-412.09903"
       id="text32"
       transform="scale(1,-1)"
       inkscape:transform-center-x="10.089417"
       inkscape:transform-center-y="-94.167888"
       inkscape:export-xdpi="96"
       inkscape:export-ydpi="96"
       inkscape:export-filename="C:\Users\Ryan\Desktop\text32.png"><tspan
         sodipodi:role="line"
         id="tspan30"
         x="831.55573"
         y="-412.09903"
         style="font-style:normal;font-variant:normal;font-weight:bold;font-stretch:normal;font-size:64px;font-family:sans-serif;-inkscape-font-specification:'sans-serif Bold';fill:#ffffff;stroke-width:0.75">®</tspan></text>
</g></svg>